# xmcd
#
# Track frame offsets:
#        150
#        21051
#        39896
#        61632
#        88856
#        120884
#        148021
#        177525
#        203932
#        230944
#        253920
#
# Disc length: 3658 seconds
#
# Revision: 0
# Processed by: cddbd v1.5.1PL0 Copyright (c) Steve Scherf et al.
# Submitted via: ExactAudioCopy v0.95a4
#
DISCID=960e480b
DTITLE=Various Artist - Hi:Fidelity Lounge
DYEAR=1999
DGENRE=Tribal
TTITLE0=Flywheel/Slowdown
TTITLE1=Louise Vertigo/Ou Est La Femme?
TTITLE2=Thievery Coporation/Lebanese Blonde (Instrumental Mix)
TTITLE3=Marschmellows/Soulpower (Jazzanova Rework)
TTITLE4=Atjazz/Wind and Sea
TTITLE5=Extended Spirit/Solid Water (Rainer Truby Trio Remix)
TTITLE6=The Funky Lowlives/Notabossa
TTITLE7=A Friend From Rio/Para Lennon and McCartney (Lumen Soundsmiths R
TTITLE7=emix )
TTITLE8=Bobby Hughes/Seasons
TTITLE9=Bang Bang/Bye Bye Blues
TTITLE10=Paul Hunter/Paul's Pal
EXTD=
EXTT0=
EXTT1=
EXTT2=
EXTT3=
EXTT4=
EXTT5=
EXTT6=
EXTT7=
EXTT8=
EXTT9=
EXTT10=
PLAYORDER=
